<svg width="24" height="24" viewBox="0 0 24 24" fill="none" xmlns="http://www.w3.org/2000/svg">
<g id="Frame 1" clip-path="url(#clip0_1_3)">
<path id="f" d="M10.6982 10.5635V21.7109C10.6982 21.8184 10.7178 21.9258 10.7568 22.0332C10.7959 22.1406 10.9033 22.1943 11.0791 22.1943H12.7051C12.793 22.1943 12.8857 22.1992 12.9834 22.209C13.0811 22.209 13.1689 22.2236 13.2471 22.2529C13.335 22.2822 13.4033 22.3262 13.4521 22.3848C13.5107 22.4434 13.54 22.5312 13.54 22.6484C13.54 22.707 13.501 22.7803 13.4229 22.8682C13.3545 22.9561 13.2666 23 13.1592 23H10.9326C10.7471 23 10.5029 22.9951 10.2002 22.9854C9.90723 22.9658 9.62402 22.9561 9.35059 22.9561C9.04785 22.9561 8.79395 22.9658 8.58887 22.9854C8.38379 22.9951 8.13965 23.0098 7.85645 23.0293C7.74902 23.0391 7.6416 23.0439 7.53418 23.0439C7.42676 23.0439 7.30957 23.0439 7.18262 23.0439H6.3623C6.19629 23.0439 6.05957 23.0293 5.95215 23C5.85449 22.9805 5.80566 22.9023 5.80566 22.7656C5.80566 22.707 5.83496 22.6533 5.89355 22.6045C5.95215 22.5557 6.02539 22.5166 6.11328 22.4873C6.20117 22.4482 6.29395 22.4238 6.3916 22.4141C6.49902 22.3945 6.60156 22.3848 6.69922 22.3848H6.97754C7.10449 22.3848 7.25098 22.3799 7.41699 22.3701C7.58301 22.3604 7.74902 22.3262 7.91504 22.2676C7.9541 22.248 7.9834 22.2139 8.00293 22.165C8.03223 22.1162 8.07129 22.0723 8.12012 22.0332V10.5635C8.12012 10.3779 7.99805 10.2852 7.75391 10.2852C7.4707 10.2852 7.17773 10.3193 6.875 10.3877C6.58203 10.4463 6.30859 10.4756 6.05469 10.4756C5.99609 10.4756 5.93262 10.4756 5.86426 10.4756C5.7959 10.4756 5.72754 10.4707 5.65918 10.4609C5.59082 10.4414 5.53223 10.4219 5.4834 10.4023C5.44434 10.373 5.4248 10.334 5.4248 10.2852C5.4248 10.1875 5.5127 10.0947 5.68848 10.0068C5.86426 9.91895 6.07422 9.83105 6.31836 9.74316C6.5625 9.65527 6.80664 9.5625 7.05078 9.46484C7.30469 9.36719 7.5 9.26465 7.63672 9.15723C7.83203 8.99121 7.96387 8.7959 8.03223 8.57129C8.11035 8.34668 8.15918 8.1123 8.17871 7.86816C8.20801 7.61426 8.23242 7.36035 8.25195 7.10645C8.27148 6.85254 8.3252 6.6084 8.41309 6.37402C8.72559 5.56348 9.15039 4.85059 9.6875 4.23535C10.2344 3.61035 10.8545 3.08789 11.5479 2.66797C12.251 2.23828 13.0078 1.91602 13.8184 1.70117C14.6387 1.48633 15.4736 1.37891 16.3232 1.37891C16.6455 1.37891 17.041 1.39844 17.5098 1.4375C17.9883 1.4668 18.4521 1.55469 18.9014 1.70117C19.3506 1.83789 19.7314 2.04297 20.0439 2.31641C20.3662 2.58984 20.5273 2.96094 20.5273 3.42969C20.5273 3.52734 20.498 3.6543 20.4395 3.81055C20.3906 3.9668 20.3271 4.09375 20.249 4.19141C19.9268 4.62109 19.541 4.83594 19.0918 4.83594C18.9258 4.83594 18.75 4.81641 18.5645 4.77734C18.3887 4.72852 18.2227 4.65527 18.0664 4.55762C17.9883 4.50879 17.9053 4.43555 17.8174 4.33789C17.7393 4.23047 17.6807 4.15723 17.6416 4.11816C17.417 3.75684 17.1777 3.48828 16.9238 3.3125C16.6797 3.12695 16.377 2.95605 16.0156 2.7998C15.9375 2.77051 15.8252 2.73633 15.6787 2.69727C15.5322 2.64844 15.376 2.60449 15.21 2.56543C15.0439 2.52637 14.8779 2.49219 14.7119 2.46289C14.5459 2.43359 14.3994 2.41895 14.2725 2.41895C13.8623 2.41895 13.4668 2.47266 13.0859 2.58008C12.7051 2.6875 12.3291 2.86328 11.958 3.10742C11.7725 3.21484 11.6162 3.37598 11.4893 3.59082C11.3623 3.7959 11.2598 4.01562 11.1816 4.25C11.1035 4.48438 11.04 4.71387 10.9912 4.93848C10.9521 5.16309 10.9229 5.33887 10.9033 5.46582C10.8252 5.90527 10.7764 6.35449 10.7568 6.81348C10.7471 7.2627 10.7422 7.70703 10.7422 8.14648C10.7422 8.20508 10.7422 8.27832 10.7422 8.36621C10.752 8.4541 10.7666 8.54199 10.7861 8.62988C10.8057 8.71777 10.835 8.79102 10.874 8.84961C10.9131 8.9082 10.9717 8.9375 11.0498 8.9375C11.1865 8.9375 11.3867 8.92773 11.6504 8.9082C11.9141 8.88867 12.1973 8.86426 12.5 8.83496C12.8125 8.80566 13.125 8.78125 13.4375 8.76172C13.7598 8.74219 14.0527 8.73242 14.3164 8.73242C14.5898 8.73242 14.7266 8.85938 14.7266 9.11328C14.7266 9.2207 14.7168 9.37207 14.6973 9.56738C14.6875 9.75293 14.6631 9.89941 14.624 10.0068C14.624 10.0654 14.5508 10.1045 14.4043 10.124C14.2676 10.1436 14.1455 10.1533 14.0381 10.1533C13.6963 10.1533 13.4033 10.1484 13.1592 10.1387C12.9248 10.1191 12.7051 10.1045 12.5 10.0947C12.3047 10.0752 12.1045 10.0605 11.8994 10.0508C11.7041 10.0312 11.4795 10.0215 11.2256 10.0215C11.1182 10.0215 11.0449 10.0312 11.0059 10.0508C10.9766 10.0703 10.9424 10.085 10.9033 10.0947C10.7959 10.1631 10.7373 10.2461 10.7275 10.3438C10.7275 10.4414 10.7178 10.5146 10.6982 10.5635Z" fill="black"/>
</g>
<defs>
<clipPath id="clip0_1_3">
<rect width="24" height="24" fill="white"/>
</clipPath>
</defs>
</svg>
